<svg width="200" height="200" viewBox="0 0 200 200" fill="none" xmlns="http://www.w3.org/2000/svg">
  <!-- Phone outline -->
  <rect x="70" y="60" width="60" height="100" rx="12" fill="#3B82F6" stroke="#1E40AF" stroke-width="4"/>
  
  <!-- Screen -->
  <rect x="75" y="70" width="50" height="70" rx="6" fill="#1E293B" stroke="#0F172A" stroke-width="2"/>
  
  <!-- Contact icon -->
  <circle cx="100" cy="90" r="15" fill="#60A5FA"/>
  <path d="M100 80C100 80 95 75 90 80C85 85 90 90 90 90" stroke="white" stroke-width="2" stroke-linecap="round" fill="none"/>
  <path d="M100 80C100 80 105 75 110 80C115 85 110 90 110 90" stroke="white" stroke-width="2" stroke-linecap="round" fill="none"/>
  <circle cx="100" cy="100" r="3" fill="white"/>
  
  <!-- Home button -->
  <circle cx="100" cy="130" r="8" fill="#6B7280" stroke="#374151" stroke-width="2"/>
  
  <!-- Signal bars -->
  <rect x="85" y="40" width="3" height="15" fill="#10B981" rx="1"/>
  <rect x="90" y="35" width="3" height="20" fill="#10B981" rx="1"/>
  <rect x="95" y="30" width="3" height="25" fill="#10B981" rx="1"/>
  <rect x="100" y="25" width="3" height="30" fill="#10B981" rx="1"/>
  <rect x="105" y="30" width="3" height="25" fill="#10B981" rx="1"/>
  <rect x="110" y="35" width="3" height="20" fill="#10B981" rx="1"/>
  <rect x="115" y="40" width="3" height="15" fill="#10B981" rx="1"/>
</svg>
