<svg xmlns="http://www.w3.org/2000/svg" viewBox="0 0 84.01 11.16" width="32" height="32">
  <defs></defs>
  <g>
    <path d="M4.43 3.56 4.43 5.34 2.88 5.34C2.72357 5.33017 2.56755 5.36485 2.43 5.44 2.33663 5.5144 2.28763 5.63126 2.3 5.75 2.3 5.92 2.3 6.03 2.43 6.08 2.61026 6.15413 2.8063 6.18164 3 6.16L4.6 6.16 4.6 8.45 2.71 8.45C1.98785 8.49878 1.27382 8.27386 0.71 7.82 0.216993 7.3474-0.0427449 6.6816 3.8147e-08 6L0 2.87C-0.0392308 2.2074 0.20002 1.55853 0.66 1.08 1.17019 0.635528 1.83458 0.409278 2.51 0.45L4.58 0.45 4.58 2.75 3.06 2.75C2.65 2.75 2.45 2.88 2.45 3.15 2.43852 3.27593 2.49586 3.39826 2.6 3.47 2.76215 3.54602 2.94174 3.5771 3.12 3.56Z" fill="#009444"></path>
    <path d="M11 8.45 8.8 8.45 8.8 5.15C8.8 4.81 8.66 4.65 8.38 4.65 8.1 4.65 8 4.81 8 5.15L8 8.45 5.78 8.45 5.78 5.19C5.76558 4.47397 6.03942 3.78217 6.54 3.27 7.01739 2.75716 7.68943 2.47018 8.39 2.48 9.16169 2.45688 9.90046 2.79301 10.39 3.39 10.8195 3.96467 11.0288 4.67423 10.98 5.39Z" fill="#009444"></path>
    <path d="M18 5.88 14.69 5.88C14.6417 5.73123 14.6147 5.57635 14.61 5.42 14.6107 5.22479 14.648 5.03144 14.72 4.85L15.83 4.85C15.8145 4.47477 15.4977 4.18317 15.1225 4.1987 15.115 4.19901 15.1075 4.19944 15.1 4.2 14.834 4.19489 14.5829 4.32232 14.43 4.54 14.2495 4.80455 14.1584 5.11994 14.17 5.44 14.1585 5.76487 14.2457 6.0856 14.42 6.36 14.5675 6.57989 14.8153 6.7113 15.08 6.71 15.3278 6.69605 15.5574 6.57575 15.71 6.38L17 7.88C16.437 8.34126 15.7276 8.58599 15 8.57 14.1804 8.5882 13.3891 8.27023 12.81 7.69 12.2529 7.11299 11.9597 6.33103 12 5.53 11.9899 4.71586 12.3112 3.93259 12.89 3.36 13.4496 2.79967 14.2081 2.48334 15 2.48 15.7975 2.4648 16.5667 2.77537 17.13 3.34 17.7013 3.89966 18.0161 4.67041 18 5.47 18.0068 5.60658 18.0068 5.74342 18 5.88Z" fill="#009444"></path>
    <path d="M22.13 2.55 22.13 4.89C22.0014 4.81605 21.8579 4.77164 21.71 4.76 21.31 4.76 21.11 5.07 21.11 5.68L21.11 8.45 18.92 8.45 18.92 5.26C18.8859 4.52964 19.1328 3.81396 19.61 3.26 20.0867 2.74955 20.7621 2.47208 21.46 2.5 21.6842 2.50237 21.908 2.51907 22.13 2.55Z" fill="#009444"></path>
    <path d="M25.89 6 25.89 8C25.6 8.11449 25.2917 8.17547 24.98 8.18 24.2899 8.18865 23.6312 7.89223 23.18 7.37 22.6819 6.82604 22.4194 6.10695 22.45 5.37 22.431 4.57374 22.7509 3.80683 23.33 3.26 23.9084 2.68597 24.6953 2.3719 25.51 2.39 25.9612 2.39335 26.4069 2.48863 26.82 2.67 27.2126 2.82449 27.5575 3.07973 27.82 3.41 28.2615 4.06261 28.4726 4.84385 28.42 5.63L28.42 7.65C28.4587 8.57928 28.1403 9.48813 27.53 10.19 26.9438 10.8459 26.0994 11.2114 25.22 11.19 24.8425 11.1832 24.4683 11.1191 24.11 11L24.11 9C24.3705 9.15431 24.6672 9.2371 24.97 9.24 25.3206 9.26002 25.6606 9.1159 25.89 8.85 26.1222 8.52452 26.2352 8.12901 26.21 7.73L26.21 5.48C26.21 4.87 25.96 4.56 25.47 4.56 25.0331 4.58056 24.6851 4.93291 24.67 5.37 24.6649 5.57771 24.7486 5.77775 24.9 5.92 25.0474 6.06991 25.2498 6.15301 25.46 6.15 25.613 6.13374 25.7601 6.08241 25.89 6Z" fill="#009444"></path>
    <path d="M31.88 2.61 31.88 8.45 29.69 8.45 29.69 2.61ZM30.79 0C31.0781-0.0056363 31.3561 0.10629 31.56 0.31 31.7695 0.499059 31.8893 0.767822 31.89 1.05 31.8973 1.33258 31.7847 1.60505 31.58 1.8 31.1293 2.20007 30.4507 2.20007 30 1.8 29.799 1.60331 29.6901 1.33106 29.7 1.05 29.6929 0.772377 29.8016 0.504309 30 0.31 30.2087 0.101162 30.495-0.0111886 30.79-5.72205e-08Z" fill="#009444"></path>
    <path d="M36.42 6.26 36.42 8.53C35.4449 8.68488 34.4529 8.38246 33.73 7.71 33.1452 7.13803 32.8262 6.34765 32.85 5.53 32.8309 4.72202 33.1499 3.94273 33.73 3.38 34.9561 2.21435 36.8726 2.18822 38.13 3.32 38.7144 3.92422 39.0284 4.73987 39 5.58L39 8.45 36.76 8.45 36.76 5.74C36.7713 5.47415 36.69 5.21263 36.53 5 36.3801 4.81955 36.1544 4.71964 35.92 4.73 35.6966 4.72497 35.4818 4.816 35.33 4.98 35.1649 5.136 35.0709 5.35285 35.07 5.58 35.0652 5.80239 35.1478 6.0178 35.3 6.18 35.4555 6.3301 35.6639 6.41276 35.88 6.41 36.0706 6.41249 36.258 6.36045 36.42 6.26Z" fill="#009444"></path>
  </g>
</svg>
