<svg xmlns="http://www.w3.org/2000/svg" xmlns:xlink="http://www.w3.org/1999/xlink" id="Layer_1" data-name="Layer 1" viewBox="0 0 128 88"><defs><linearGradient id="linear-gradient" x1="54.551" y1="58.709" x2="15.086" y2="35.924" gradientUnits="userSpaceOnUse"><stop offset="0" stop-color="#5f7d78"></stop><stop offset=".22" stop-color="#9fb5b4"></stop><stop offset=".336" stop-color="#91a9a7"></stop><stop offset=".45" stop-color="#d7e2e3"></stop><stop offset=".564" stop-color="#819b9b"></stop><stop offset=".809" stop-color="#9fb5b4"></stop><stop offset="1" stop-color="#516f6d"></stop></linearGradient><linearGradient id="linear-gradient-2" x1="55.968" y1="56.563" x2="16.631" y2="33.852" xlink:href="#linear-gradient"></linearGradient><radialGradient id="radial-gradient" cx="69.089" cy="21.649" fx="69.089" fy="21.649" r=".013" gradientTransform="translate(2.39 .193) scale(.984)" gradientUnits="userSpaceOnUse"><stop offset="0" stop-color="#8ca7a4"></stop><stop offset="1" stop-color="#6b888c"></stop></radialGradient><radialGradient id="radial-gradient-2" cx="6.674" cy="57.703" fx="6.674" fy="57.703" r="3.754" xlink:href="#radial-gradient"></radialGradient><radialGradient id="radial-gradient-3" cx="4.823" cy="52.253" fx="4.823" fy="52.253" r="2.75" xlink:href="#radial-gradient"></radialGradient><radialGradient id="radial-gradient-4" cx="2.873" cy="49.082" fx="2.873" fy="49.082" r="3.245" xlink:href="#radial-gradient"></radialGradient><radialGradient id="radial-gradient-5" cx="3.835" cy="43.8" fx="3.835" fy="43.8" r="3.349" xlink:href="#radial-gradient"></radialGradient><radialGradient id="radial-gradient-6" cx="3.595" cy="37.204" fx="3.595" fy="37.204" r="3.826" xlink:href="#radial-gradient"></radialGradient><radialGradient id="radial-gradient-7" cx="7.331" cy="31.235" fx="7.331" fy="31.235" r="3.753" xlink:href="#radial-gradient"></radialGradient><radialGradient id="radial-gradient-8" cx="10.384" cy="26.493" fx="10.384" fy="26.493" r="2.891" xlink:href="#radial-gradient"></radialGradient><radialGradient id="radial-gradient-9" cx="12.445" cy="22.681" fx="12.445" fy="22.681" r="3.505" xlink:href="#radial-gradient"></radialGradient><radialGradient id="radial-gradient-10" cx="14.742" cy="20.596" fx="14.742" fy="20.596" r="3.361" xlink:href="#radial-gradient"></radialGradient><radialGradient id="radial-gradient-11" cx="19.767" cy="18.979" fx="19.767" fy="18.979" r="3.31" xlink:href="#radial-gradient"></radialGradient><radialGradient id="radial-gradient-12" cx="25.008" cy="15.797" fx="25.008" fy="15.797" r="3.391" xlink:href="#radial-gradient"></radialGradient><radialGradient id="radial-gradient-13" cx="30.206" cy="16.169" fx="30.206" fy="16.169" r="3.35" xlink:href="#radial-gradient"></radialGradient></defs><g id="Platinum"><path id="Logo_2_2" data-name="Logo 2/2" d="m52.211,28.987c-8.895-8.895-23.318-8.899-32.217,0-8.896,8.895-8.892,23.321.003,32.216,4.442,4.442,10.265,6.666,16.088,6.67v9.45s15.99-15.989,15.99-15.989c.044-.044.089-.088.134-.133,8.899-8.898,8.896-23.32.002-32.214Zm-6.169,27.408c-5.629,4.97-14.255,4.972-19.884.001-6.57-5.803-6.806-15.844-.701-21.948,5.879-5.88,15.411-5.878,21.29.001,6.103,6.103,5.868,16.142-.706,21.946Z" style="fill: url(#linear-gradient); stroke-width: 0px;"></path><path id="Logo_1_2" data-name="Logo 1/2" d="m30.538,39.941c-2.656,2.864-2.658,7.43-.006,10.297,2.939,3.178,7.899,3.248,10.932.216,2.96-2.962,2.962-7.761.001-10.722-3.034-3.033-7.988-2.962-10.928.208Z" style="fill: url(#linear-gradient-2); stroke-width: 0px;"></path><g id="Text"><path d="m70.379,21.488c-.014.003-.025.006-.035.009.011-.003.023-.006.035-.009Z" style="fill: url(#radial-gradient); stroke-width: 0px;"></path><g><path d="m10.089,53.355c.179-.093.347-.114.503-.064.156.05.28.164.373.343.082.159.101.321.054.483-.046.163-.159.29-.338.383l-.03.016c.141.045.288.106.441.182.153.077.302.172.445.288.143.115.278.245.404.391.125.146.231.301.317.467.22.425.345.856.378,1.293.033.437-.016.853-.144,1.248-.129.394-.333.756-.613,1.086-.279.33-.622.599-1.027.808-.405.209-.823.332-1.254.37-.43.037-.846-.006-1.248-.132-.401-.125-.772-.326-1.113-.604-.341-.278-.62-.626-.836-1.044-.192-.372-.299-.733-.32-1.084-.021-.35.025-.677.138-.979-.172.089-.339.106-.498.049s-.281-.164-.363-.324c-.093-.179-.114-.347-.064-.503.05-.156.161-.279.334-.368l4.462-2.304Zm-2.543,4.922c.13.252.297.462.502.63.204.168.429.289.674.365.245.075.501.103.769.083.267-.02.523-.094.769-.221s.453-.292.62-.497c.168-.204.29-.427.367-.669.077-.241.106-.494.088-.758-.019-.264-.093-.522-.223-.774-.123-.239-.286-.439-.487-.6-.201-.161-.419-.275-.656-.342-.236-.067-.485-.088-.745-.063-.26.025-.513.101-.759.228-.246.127-.456.29-.631.489-.174.2-.304.416-.39.649-.085.233-.121.479-.106.736.015.257.084.505.208.745Z" style="fill: url(#radial-gradient-2); stroke-width: 0px;"></path><path d="m6.322,51.709c.035-.303.081-.565.138-.785.057-.22.13-.412.217-.575.122-.21.279-.38.473-.509.194-.129.446-.236.756-.319.231-.062.466-.078.706-.05s.466.101.679.218c.213.117.403.275.568.475.165.199.287.443.364.732.068.253.092.511.074.775-.018.264-.07.496-.156.697-.052.122-.12.231-.203.327-.082.095-.189.161-.319.196-.144.039-.294.022-.448-.048s-.252-.182-.292-.334c-.035-.13-.028-.279.02-.446.036-.126.059-.256.069-.39s-.005-.277-.045-.429c-.058-.217-.156-.36-.296-.432-.139-.071-.291-.084-.457-.04-.159.042-.273.102-.341.178-.068.077-.121.162-.157.257-.078.199-.123.406-.135.622-.012.216-.047.432-.105.649-.077.291-.207.539-.392.743-.185.204-.455.354-.808.448-.26.07-.508.09-.744.06-.236-.03-.451-.102-.644-.217-.193-.114-.359-.265-.498-.453-.139-.187-.242-.407-.31-.66-.068-.252-.087-.514-.059-.785.028-.27.119-.496.271-.676.1-.119.243-.204.431-.254.151-.041.295-.031.431.029.136.061.229.184.28.372.019.072.024.154.013.246s-.038.167-.085.225c-.126.165-.158.363-.096.594.031.116.102.207.213.274.111.067.249.078.415.034.151-.041.26-.106.324-.197s.114-.276.147-.556Z" style="fill: url(#radial-gradient-3); stroke-width: 0px;"></path><path d="m2.296,48.246c.193-.027.354.008.485.106.131.098.211.247.239.447.025.178-.011.335-.108.474-.097.138-.242.221-.435.249l-.888.126c-.193.027-.355-.012-.487-.117-.132-.106-.211-.247-.236-.425-.029-.199.006-.365.105-.496.098-.131.244-.21.436-.238l.888-.126Zm6.537-.93c.199-.029.365.006.496.105.131.098.211.247.239.447.025.178-.011.336-.108.474-.097.138-.246.222-.446.25l-4.749.676c-.185.027-.345-.013-.481-.118-.135-.105-.216-.247-.241-.424-.029-.2.008-.365.11-.497.102-.132.246-.21.431-.237l4.75-.676Z" style="fill: url(#radial-gradient-4); stroke-width: 0px;"></path><path d="m8.784,40.166c.201.007.358.07.47.19.112.12.164.281.157.482-.006.179-.069.329-.189.448-.12.119-.281.175-.483.169h-.034c.101.107.2.232.296.374.096.142.178.298.247.468.069.171.122.35.161.538.038.188.054.376.048.562-.016.478-.118.916-.303,1.313-.186.397-.431.737-.737,1.018-.305.281-.66.497-1.065.647-.405.151-.836.218-1.291.202-.456-.016-.88-.113-1.274-.291-.394-.178-.735-.42-1.023-.726s-.514-.663-.675-1.072c-.161-.409-.234-.849-.217-1.32.014-.419.098-.786.251-1.102.153-.316.353-.578.599-.787-.194-.007-.347-.074-.458-.201-.111-.127-.164-.28-.158-.46.007-.201.07-.358.19-.47s.277-.164.471-.158l5.019.175Zm-4.626,3.047c-.01.284.034.549.13.795.096.246.233.462.409.648.177.186.387.335.629.448.243.113.503.175.779.184.276.009.538-.034.784-.13.246-.096.462-.231.647-.404.186-.173.335-.379.448-.618.113-.239.174-.501.184-.784.009-.269-.034-.523-.131-.762-.096-.239-.231-.445-.405-.62-.173-.174-.38-.314-.619-.42-.239-.105-.497-.163-.774-.172-.276-.01-.539.03-.789.118-.25.089-.469.214-.658.376-.189.162-.339.358-.452.59-.113.232-.174.482-.183.751Z" style="fill: url(#radial-gradient-5); stroke-width: 0px;"></path><path d="m6.151,37.313l.122-.466-1.654-1.52c-.106-.097-.173-.203-.201-.319-.028-.115-.028-.227,0-.336.041-.159.136-.291.283-.395.147-.105.307-.134.481-.089.116.03.223.093.321.188l1.64,1.62,2.58-.567c.122-.022.241-.019.356.011.188.049.321.153.4.313.078.159.096.319.055.478-.03.116-.087.215-.17.297s-.197.136-.343.16l-2.62.499-.11.423,2.072.54c.195.05.334.147.417.288.083.141.099.31.048.505-.045.173-.139.305-.282.395-.143.09-.313.11-.508.059l-7.257-1.89c-.188-.049-.323-.148-.404-.296-.081-.148-.099-.31-.053-.483.051-.195.147-.334.288-.417.141-.083.306-.1.494-.051l4.046,1.054Z" style="fill: url(#radial-gradient-6); stroke-width: 0px;"></path><path d="m12.915,29.595c.18.092.295.216.345.371.05.156.029.323-.062.503-.082.16-.202.268-.361.325-.159.057-.329.04-.509-.052l-.03-.015c.045.141.082.296.109.465s.035.345.025.529c-.01.184-.037.369-.082.556-.045.187-.111.363-.196.53-.217.426-.495.779-.832,1.06-.337.281-.703.484-1.098.61-.395.125-.809.17-1.24.134-.431-.036-.849-.157-1.255-.365-.405-.207-.749-.475-1.03-.804-.281-.328-.488-.692-.62-1.091-.132-.399-.184-.818-.156-1.257.028-.439.148-.869.363-1.288.191-.373.422-.67.695-.891.273-.221.565-.374.877-.458-.173-.089-.283-.214-.33-.376-.047-.163-.029-.324.052-.483.092-.18.216-.295.371-.345.156-.05.321-.031.493.057l4.471,2.287Zm-5.481.798c-.13.253-.203.511-.22.775-.018.264.014.517.095.761.082.243.208.467.38.673.172.206.381.371.627.497.246.126.501.198.765.215.264.017.516-.013.758-.091.241-.078.464-.201.668-.37.204-.168.37-.379.5-.632.122-.239.191-.488.205-.745.014-.257-.021-.501-.104-.733-.083-.231-.211-.445-.383-.643-.172-.197-.381-.358-.627-.485-.246-.126-.501-.201-.765-.228-.264-.026-.515-.005-.755.061-.239.066-.459.18-.66.342-.2.162-.362.363-.484.602Z" style="fill: url(#radial-gradient-7); stroke-width: 0px;"></path><path d="m12.084,25.563c.268-.147.508-.261.721-.342.213-.08.411-.132.595-.154.242-.022.472.008.689.091.217.083.45.228.697.433.184.153.334.335.448.547.115.212.187.439.215.681.028.242.008.488-.059.738-.067.25-.196.491-.387.721-.167.201-.364.371-.59.509-.226.138-.445.23-.659.276-.13.028-.258.036-.384.024-.126-.012-.241-.061-.344-.147-.115-.095-.188-.226-.22-.393-.031-.167.003-.311.103-.432.086-.103.211-.184.376-.242.123-.043.243-.099.358-.169.116-.069.223-.164.324-.285.143-.172.204-.336.181-.49-.022-.154-.099-.286-.232-.396-.127-.105-.241-.163-.343-.175-.102-.012-.202-.005-.3.02-.208.051-.403.134-.586.249-.183.115-.38.212-.59.289-.282.106-.56.142-.834.109-.273-.033-.551-.167-.833-.4-.207-.172-.367-.363-.479-.572s-.178-.427-.196-.651c-.018-.224.009-.446.081-.668s.192-.433.359-.634c.167-.201.369-.368.606-.502.237-.133.473-.19.709-.169.155.012.307.08.457.204.121.1.196.223.225.369.029.146-.018.294-.142.443-.048.058-.112.109-.193.153s-.158.065-.233.061c-.208-.007-.388.081-.541.265-.077.092-.11.203-.101.332.009.129.08.249.212.358.121.1.237.151.348.151.111,0,.291-.066.538-.201Z" style="fill: url(#radial-gradient-8); stroke-width: 0px;"></path><path d="m13.369,20.926l.298-.272c.144-.131.297-.192.461-.185.164.008.313.086.449.235.121.133.18.284.178.453-.003.17-.076.319-.22.45l-.298.272,2.008,2.205c.101.111.196.185.287.224s.182.052.272.04c.09-.012.176-.04.257-.083.082-.044.164-.098.246-.163.138-.104.279-.146.427-.123s.286.106.417.249c.121.133.171.282.15.448-.021.166-.123.331-.305.498-.193.176-.398.312-.614.408-.216.096-.44.141-.673.135-.233-.006-.467-.069-.705-.192-.238-.122-.472-.31-.704-.565l-2.015-2.213c-.142.099-.288.136-.437.111-.15-.025-.28-.099-.391-.22-.121-.133-.186-.273-.194-.422-.009-.148.045-.286.162-.413l-1.275-1.4c-.136-.149-.197-.308-.184-.477.013-.168.086-.313.219-.434.149-.136.306-.2.469-.192.164.008.313.086.449.235l1.268,1.392Z" style="fill: url(#radial-gradient-9); stroke-width: 0px;"></path><path d="m15.721,17.773c.115.156.16.316.135.478-.025.162-.119.302-.281.421-.145.106-.301.149-.469.128-.168-.021-.309-.109-.424-.266l-.53-.724c-.115-.157-.156-.318-.126-.485.031-.166.119-.302.264-.408.163-.119.325-.166.487-.141s.3.116.415.273l.53.724Zm3.901,5.326c.119.163.167.325.142.487-.025.162-.119.303-.282.422-.145.106-.301.149-.469.128-.168-.021-.311-.112-.431-.275l-2.835-3.87c-.11-.151-.151-.311-.122-.48.029-.169.116-.307.26-.413.163-.119.326-.165.49-.137.164.028.301.118.411.268l2.835,3.87Z" style="fill: url(#radial-gradient-10); stroke-width: 0px;"></path><path d="m20.468,15.901c.403-.197.822-.305,1.256-.326.435-.021.85.033,1.244.16.395.128.755.326,1.082.595.326.269.583.595.77.978.095.195.117.367.065.517-.052.15-.168.269-.35.358l-4.091,1.994c.125.172.281.312.467.421.186.109.387.183.602.224.215.041.433.049.654.024s.429-.085.624-.179c.248-.121.456-.276.621-.465.165-.188.29-.403.372-.643.037-.093.088-.178.151-.254.062-.076.13-.132.204-.168.154-.075.312-.081.472-.018.16.064.277.172.352.327.04.08.067.163.083.246.016.084.008.17-.023.26-.121.416-.325.782-.612,1.097-.287.315-.639.574-1.056.777-.41.2-.832.31-1.267.331-.435.021-.851-.036-1.249-.17-.398-.134-.762-.343-1.092-.628-.33-.284-.594-.631-.794-1.041s-.31-.832-.331-1.267c-.021-.435.038-.852.176-1.251.138-.4.347-.766.63-1.099.282-.333.628-.599,1.038-.799Zm.565,1.158c-.195.095-.37.222-.525.381-.155.159-.279.336-.371.53-.093.194-.153.399-.182.612-.029.213-.018.424.034.632l3.386-1.651c-.125-.172-.281-.312-.467-.421s-.386-.186-.599-.232c-.214-.045-.431-.056-.652-.032-.221.025-.429.085-.623.179Z" style="fill: url(#radial-gradient-11); stroke-width: 0px;"></path><path d="m26.506,13.898l.39-.103c.188-.049.352-.033.494.05.141.082.238.221.289.416.045.174.028.335-.053.483-.081.149-.215.248-.403.297l-.39.103.757,2.884c.038.145.088.255.151.331.062.077.136.13.222.162.085.032.175.047.267.046.093,0,.19-.011.294-.031.17-.029.315,0,.435.089.12.088.204.227.254.414.045.174.021.329-.075.466-.095.137-.262.237-.501.299-.253.066-.498.092-.733.077-.236-.015-.456-.08-.659-.192-.203-.113-.382-.278-.536-.497-.154-.218-.274-.494-.362-.826l-.76-2.895c-.172.022-.318-.013-.439-.105-.121-.092-.202-.217-.244-.376-.045-.174-.038-.328.023-.464.061-.136.173-.233.335-.291l-.481-1.832c-.051-.195-.032-.365.058-.508.09-.143.222-.238.395-.283.195-.051.363-.035.505.047.142.083.238.221.289.416l.478,1.822Z" style="fill: url(#radial-gradient-12); stroke-width: 0px;"></path><path d="m31.855,12.815c.454-.034.888.021,1.3.165.412.145.778.355,1.099.63.321.276.582.606.784.991.202.385.321.806.355,1.26.035.455-.018.888-.159,1.299-.141.412-.349.777-.625,1.093-.276.318-.606.577-.991.779-.386.202-.806.32-1.26.355-.455.035-.888-.018-1.299-.159-.412-.141-.778-.347-1.099-.619-.321-.271-.582-.6-.784-.986-.202-.385-.32-.806-.355-1.26-.035-.454.018-.888.159-1.299.141-.411.349-.778.624-1.099.275-.321.605-.584.991-.79.385-.206.805-.326,1.26-.361Zm.098,1.285c-.283.022-.542.094-.776.217-.234.123-.434.283-.599.479-.165.196-.29.421-.376.675-.086.254-.118.519-.097.795.021.276.093.531.216.765.123.234.281.434.473.599s.414.291.664.376c.25.086.517.118.8.096.276-.021.531-.093.765-.216.234-.123.436-.281.605-.473.169-.193.296-.414.382-.665.086-.25.118-.513.097-.789-.021-.276-.093-.533-.217-.771-.123-.238-.283-.441-.48-.61-.196-.169-.42-.296-.67-.382-.25-.086-.513-.118-.789-.097Z" style="fill: url(#radial-gradient-13); stroke-width: 0px;"></path></g></g><g><path d="m65.301,37.044c-.72,0-1.325-.161-1.815-.482-.491-.322-.836-.759-1.037-1.312l1.224-.716c.284.74.84,1.11,1.67,1.11.401,0,.695-.073.882-.218.187-.146.28-.329.28-.55,0-.256-.114-.455-.343-.596s-.636-.296-1.224-.462c-.325-.097-.6-.193-.824-.29-.225-.097-.45-.227-.674-.389-.225-.162-.396-.368-.514-.617-.118-.249-.176-.539-.176-.871,0-.657.233-1.181.7-1.571s1.028-.586,1.686-.586c.587,0,1.104.144,1.55.43.446.287.794.687,1.043,1.198l-1.203.695c-.291-.623-.754-.934-1.39-.934-.298,0-.531.067-.7.202-.17.135-.254.31-.254.524,0,.228.095.413.285.555.189.142.555.296,1.094.462.222.069.389.123.503.161s.27.097.467.176.35.154.456.223c.107.069.23.163.368.28.139.118.244.239.316.363.073.125.135.275.188.451.052.176.077.368.077.576,0,.67-.243,1.203-.731,1.597-.487.394-1.121.591-1.902.591Z" style="fill: #1d1d1b; stroke-width: 0px;"></path><path d="m72.094,37.044c-.809,0-1.473-.228-1.991-.685-.519-.456-.777-1.068-.777-1.835v-4.885h1.421v4.771c0,.38.108.681.326.902s.559.332,1.021.332.804-.111,1.021-.332.327-.522.327-.902v-4.771h1.432v4.885c0,.768-.26,1.379-.778,1.835-.519.457-1.186.685-2.002.685Z" style="fill: #1d1d1b; stroke-width: 0px;"></path><path d="m82.787,35.95c-.733.73-1.625,1.094-2.676,1.094s-1.941-.364-2.671-1.094c-.729-.729-1.095-1.623-1.095-2.681s.365-1.952,1.095-2.681,1.619-1.094,2.671-1.094,1.942.365,2.676,1.094c.732.729,1.1,1.623,1.1,2.681s-.367,1.952-1.1,2.681Zm-4.346-.975c.449.446,1.006.669,1.67.669s1.22-.223,1.67-.669c.449-.446.674-1.015.674-1.706s-.225-1.262-.674-1.711c-.45-.449-1.007-.674-1.67-.674s-1.221.225-1.67.674c-.45.45-.675,1.02-.675,1.711s.225,1.26.675,1.706Z" style="fill: #1d1d1b; stroke-width: 0px;"></path><path d="m92.515,29.639v7.26h-1.421v-4.708l-2.043,3.371h-.166l-2.043-3.36v4.698h-1.432v-7.26h1.473l2.085,3.433,2.074-3.433h1.473Z" style="fill: #1d1d1b; stroke-width: 0px;"></path><path d="m95.813,35.53h3.06v1.369h-4.491v-7.26h4.439v1.369h-3.008v1.545h2.748v1.348h-2.748v1.628Z" style="fill: #1d1d1b; stroke-width: 0px;"></path><path d="m104.599,29.639h1.431v7.26h-1.089l-3.111-4.439v4.439h-1.432v-7.26h1.089l3.112,4.429v-4.429Z" style="fill: #1d1d1b; stroke-width: 0px;"></path><path d="m64.616,49.345l-2.438-7.26h1.556l1.773,5.58,1.764-5.58h1.565l-2.447,7.26h-1.773Z" style="fill: #1d1d1b; stroke-width: 0px;"></path><path d="m74.718,49.345l-.437-1.307h-2.894l-.436,1.307h-1.545l2.541-7.26h1.773l2.552,7.26h-1.556Zm-2.873-2.645h1.991l-.996-2.966-.995,2.966Z" style="fill: #1d1d1b; stroke-width: 0px;"></path><path d="m81.625,42.084h1.421v7.26h-1.421v-3.008h-2.696v3.008h-1.432v-7.26h1.432v2.883h2.696v-2.883Z" style="fill: #1d1d1b; stroke-width: 0px;"></path><path d="m86.707,49.345l-2.438-7.26h1.556l1.773,5.58,1.764-5.58h1.565l-2.447,7.26h-1.773Z" style="fill: #1d1d1b; stroke-width: 0px;"></path><path d="m92.142,42.084h1.432v7.26h-1.432v-7.26Z" style="fill: #1d1d1b; stroke-width: 0px;"></path><path d="m102.544,42.084v7.26h-1.421v-4.708l-2.043,3.371h-.166l-2.043-3.36v4.698h-1.432v-7.26h1.473l2.085,3.433,2.074-3.433h1.473Z" style="fill: #1d1d1b; stroke-width: 0px;"></path><path d="m111.516,42.084v7.26h-1.421v-4.708l-2.043,3.371h-.166l-2.043-3.36v4.698h-1.432v-7.26h1.473l2.085,3.433,2.074-3.433h1.473Z" style="fill: #1d1d1b; stroke-width: 0px;"></path><path d="m118.05,49.345l-.437-1.307h-2.894l-.436,1.307h-1.545l2.541-7.26h1.773l2.552,7.26h-1.556Zm-2.873-2.645h1.991l-.996-2.966-.995,2.966Z" style="fill: #1d1d1b; stroke-width: 0px;"></path><path d="m125.632,42.084v1.369h-1.961v5.891h-1.431v-5.891h-1.95v-1.369h5.342Z" style="fill: #1d1d1b; stroke-width: 0px;"></path><path d="m65.528,54.531c.698,0,1.286.234,1.764.705.477.47.716,1.048.716,1.731s-.239,1.263-.716,1.732c-.478.471-1.065.705-1.764.705h-1.275v2.386h-1.431v-7.26h2.707Zm0,3.536c.305,0,.557-.105.758-.316.2-.211.301-.472.301-.783,0-.317-.101-.58-.301-.788-.201-.207-.453-.311-.758-.311h-1.275v2.198h1.275Z" style="fill: #1d1d1b; stroke-width: 0px;"></path><path d="m70.891,60.422h2.77v1.369h-4.201v-7.26h1.432v5.891Z" style="fill: #1d1d1b; stroke-width: 0px;"></path><path d="m79.655,61.791l-.437-1.307h-2.894l-.436,1.307h-1.545l2.541-7.26h1.773l2.552,7.26h-1.556Zm-2.873-2.645h1.991l-.996-2.967-.995,2.967Z" style="fill: #1d1d1b; stroke-width: 0px;"></path><path d="m87.236,54.531v1.369h-1.961v5.891h-1.431v-5.891h-1.95v-1.369h5.342Z" style="fill: #1d1d1b; stroke-width: 0px;"></path><path d="m88.553,54.531h1.432v7.26h-1.432v-7.26Z" style="fill: #1d1d1b; stroke-width: 0px;"></path><path d="m96.052,54.531h1.431v7.26h-1.089l-3.111-4.439v4.439h-1.432v-7.26h1.089l3.112,4.429v-4.429Z" style="fill: #1d1d1b; stroke-width: 0px;"></path><path d="m104.018,61.791l-.437-1.307h-2.894l-.436,1.307h-1.545l2.541-7.26h1.773l2.552,7.26h-1.556Zm-2.873-2.645h1.991l-.996-2.967-.995,2.967Z" style="fill: #1d1d1b; stroke-width: 0px;"></path></g></g></svg>